<svg width="42" height="42" viewBox="0 0 42 42" fill="none" xmlns="http://www.w3.org/2000/svg">
<g clip-path="url(#clip0_203_72)">
<mask id="mask0_203_72" style="mask-type:alpha" maskUnits="userSpaceOnUse" x="0" y="0" width="42" height="42">
<path d="M42 0H0V42H42V0Z" fill="white"/>
</mask>
<g mask="url(#mask0_203_72)">
<path d="M35.1363 26.1914C36.8913 23.526 37.9145 20.338 37.9145 16.9148C37.9145 7.58789 30.3262 0 20.9994 0C11.6725 0 4.08458 7.58789 4.08458 16.9148C4.08458 20.338 5.10773 23.526 6.86243 26.1914L0.246094 35.8406L7.817 34.4291L9.22884 42L15.4683 32.9C17.2025 33.5018 19.0633 33.8296 20.9994 33.8296C22.9357 33.8296 24.7965 33.5018 26.5304 32.9L32.7702 42L34.1817 34.4291L41.7526 35.8406L35.1363 26.1914ZM10.5667 35.6714L9.79665 31.5417L5.66721 32.312L8.4537 28.2479C9.78831 29.7238 11.3793 30.9633 13.1551 31.897L10.5667 35.6714ZM6.55994 16.9148C6.55994 8.95294 13.0375 2.47536 20.9994 2.47536C28.9615 2.47536 35.4391 8.95294 35.4391 16.9148C35.4391 24.8769 28.9615 31.3545 20.9994 31.3545C13.0375 31.3545 6.55994 24.8769 6.55994 16.9148ZM32.2021 31.5417L31.4321 35.6714L28.8439 31.897C30.6198 30.9633 32.2107 29.7238 33.5453 28.2479L36.3318 32.3117L32.2021 31.5417Z" fill="#C90045" stroke="#F7F7F7" stroke-width="0.4"/>
<path d="M17.9858 20.6296L13.9612 16.6053L12.2109 18.3555L17.9858 24.1304L29.7916 12.3249L28.0414 10.5747L17.9858 20.6296Z" fill="#C90045" stroke="#F7F7F7" stroke-width="0.4"/>
</g>
</g>
<defs>
<clipPath id="clip0_203_72">
<rect width="42" height="42" fill="white"/>
</clipPath>
</defs>
</svg>
