<svg width="14" height="12" viewBox="0 0 14 12" fill="none" xmlns="http://www.w3.org/2000/svg">
<path d="M12.6562 0.5C13.0104 0.5 13.3229 0.635417 13.5938 0.90625C13.8646 1.17708 14 1.48958 14 1.84375V10.1562C14 10.5104 13.8646 10.8229 13.5938 11.0938C13.3229 11.3646 13.0104 11.5 12.6562 11.5H1.34375C0.989583 11.5 0.677083 11.3646 0.40625 11.0938C0.135417 10.8229 0 10.5104 0 10.1562V1.84375C0 1.48958 0.135417 1.17708 0.40625 0.90625C0.677083 0.635417 0.989583 0.5 1.34375 0.5H12.6562ZM12.5 3.34375V2L7 5.65625L1.5 2V3.34375L7 7L12.5 3.34375Z" fill="#C5A992"/>
</svg>
