<svg width="13" height="12" viewBox="0 0 13 12" fill="none" xmlns="http://www.w3.org/2000/svg">
<path d="M11.5 8.5C12.125 9.125 12.125 9.8125 11.5 10.5625C11.25 10.8542 11 11.0729 10.75 11.2188C10.5208 11.3646 10.3229 11.4479 10.1562 11.4688C10.0104 11.4896 9.79167 11.5 9.5 11.5C8.6875 11.5 7.71875 11.0833 6.59375 10.25C5.69792 9.60417 4.88542 8.90625 4.15625 8.15625C3.21875 7.17708 2.39583 6.0625 1.6875 4.8125C1.0625 3.64583 0.875 2.6875 1.125 1.9375C1.25 1.54167 1.54167 1.19792 2 0.90625L2.03125 0.875C2.40625 0.625 2.73958 0.5 3.03125 0.5C3.42708 0.5 3.78125 0.6875 4.09375 1.0625L4.125 1.09375C4.60417 1.71875 4.9375 2.20833 5.125 2.5625C5.4375 3.20833 5.42708 3.76042 5.09375 4.21875C4.84375 4.55208 4.71875 4.79167 4.71875 4.9375C4.71875 5 4.85417 5.1875 5.125 5.5L5.15625 5.53125C5.65625 6.09375 5.92708 6.39583 5.96875 6.4375C5.98958 6.4375 6.01042 6.44792 6.03125 6.46875C6.05208 6.48958 6.07292 6.51042 6.09375 6.53125L6.15625 6.59375C6.57292 7.01042 6.875 7.30208 7.0625 7.46875L7.09375 7.5C7.28125 7.66667 7.40625 7.75 7.46875 7.75C7.57292 7.75 7.875 7.59375 8.375 7.28125C8.52083 7.17708 8.69792 7.125 8.90625 7.125C9.28125 7.125 9.72917 7.28125 10.25 7.59375C10.7917 7.90625 11.2083 8.20833 11.5 8.5Z" fill="#C5A992"/>
</svg>
