<svg width="42" height="42" viewBox="0 0 42 42" fill="none" xmlns="http://www.w3.org/2000/svg">
<g clip-path="url(#clip0_203_22)">
<mask id="mask0_203_22" style="mask-type:alpha" maskUnits="userSpaceOnUse" x="0" y="0" width="42" height="42">
<path d="M42 0H0V42H42V0Z" fill="white"/>
</mask>
<g mask="url(#mask0_203_22)">
<path d="M36.2931 4.26659L22.6224 0.234835C21.5611 -0.0782783 20.4386 -0.0782783 19.377 0.234835L5.70639 4.26651C4.69708 4.56412 3.99219 5.50682 3.99219 6.55912V17.8806C3.99219 23.1201 5.55185 28.1652 8.50259 32.4707C11.3834 36.6742 15.3925 39.908 20.0961 41.8222C20.3874 41.9408 20.6936 42.0001 20.9997 42.0001C21.3059 42.0001 21.612 41.9407 21.9033 41.8222C26.6069 39.908 30.616 36.6743 33.4968 32.4707C36.4474 28.1652 38.0071 23.1201 38.0071 17.8806V6.5592C38.0073 5.5069 37.3024 4.56412 36.2931 4.26659ZM36.0951 17.8805C36.0951 22.7324 34.6512 27.4038 31.9196 31.3895C29.2512 35.2832 25.5384 38.2783 21.1827 40.0509C21.0647 40.0989 20.9348 40.0989 20.8169 40.0509C16.4611 38.2783 12.7483 35.2833 10.0799 31.3895C7.34833 27.4038 5.90442 22.7325 5.90442 17.8805V6.55912C5.90442 6.34871 6.04543 6.1602 6.24731 6.10064L19.918 2.06889C20.2719 1.96446 20.6358 1.91237 20.9998 1.91237C21.3637 1.91237 21.7277 1.96455 22.0816 2.06897L35.7524 6.10064C35.9541 6.16012 36.0951 6.34862 36.0951 6.55912V17.8805Z" fill="#C90045"/>
<path d="M31.592 8.49465L21.4032 5.48985C21.138 5.41167 20.8576 5.41151 20.5921 5.48985L10.4036 8.49465C9.79803 8.67331 9.375 9.239 9.375 9.87031V17.8804C9.375 22.1131 10.6553 26.1728 13.0774 29.6209C14.9553 32.2945 17.4645 34.5019 20.3337 36.0046C20.5416 36.1135 20.7696 36.1679 20.9978 36.1679C21.2258 36.1679 21.4539 36.1135 21.6618 36.0046C24.5309 34.502 27.0402 32.2945 28.9181 29.6209C31.3402 26.1729 32.6205 22.1131 32.6205 17.8804V9.87031C32.6204 9.23884 32.1975 8.67323 31.592 8.49465ZM30.7084 17.8804C30.7084 21.7176 29.5483 25.3974 27.3535 28.5218C25.6988 30.8775 23.5053 32.8335 20.9978 34.1918C18.4902 32.8334 16.2966 30.8775 14.642 28.5218C12.4472 25.3974 11.2871 21.7176 11.2871 17.8804V10.2277L20.9978 7.36385L30.7084 10.2277V17.8804Z" fill="#C90045"/>
</g>
</g>
<defs>
<clipPath id="clip0_203_22">
<rect width="42" height="42" fill="white"/>
</clipPath>
</defs>
</svg>
